<?xml version="1.0" standalone="no"?>
<!DOCTYPE svg PUBLIC "-//W3C//DTD SVG 20010904//EN"
 "http://www.w3.org/TR/2001/REC-SVG-20010904/DTD/svg10.dtd">
<svg version="1.0" xmlns="http://www.w3.org/2000/svg"
 width="700.000000pt" height="700.000000pt" viewBox="0 0 700.000000 700.000000"
 preserveAspectRatio="xMidYMid meet">
<metadata>
Created by potrace 1.14, written by Peter Selinger 2001-2017
</metadata>
<g transform="translate(0.000000,700.000000) scale(0.100000,-0.100000)"
fill="#000000" stroke="none">
<path d="M2110 6793 c41 -122 860 -2755 860 -2763 0 -7 -315 -10 -958 -10
l-957 0 -263 350 -262 350 -265 0 c-207 0 -263 -3 -260 -12 2 -7 81 -282 175
-610 l170 -598 -174 -607 c-96 -335 -171 -611 -167 -616 4 -4 122 -6 262 -5
l254 3 260 347 260 347 964 1 963 0 -6 -22 c-3 -13 -199 -639 -435 -1393 -236
-753 -427 -1373 -424 -1377 2 -5 159 -8 347 -8 l344 0 873 1399 874 1400 1005
3 c940 3 1009 5 1060 22 186 61 327 210 375 393 66 252 -109 539 -374 617 -48
14 -169 16 -1056 16 l-1001 0 -875 1400 -874 1400 -352 0 -352 0 9 -27z"/>
</g>
</svg>
